<?xml version="1.0" encoding="UTF-8" standalone="no"?>
<!-- Created with Inkscape (http://www.inkscape.org/) -->

<svg
   xmlns:dc="http://purl.org/dc/elements/1.1/"
   xmlns:cc="http://creativecommons.org/ns#"
   xmlns:rdf="http://www.w3.org/1999/02/22-rdf-syntax-ns#"
   xmlns:svg="http://www.w3.org/2000/svg"
   xmlns="http://www.w3.org/2000/svg"
   xmlns:sodipodi="http://sodipodi.sourceforge.net/DTD/sodipodi-0.dtd"
   xmlns:inkscape="http://www.inkscape.org/namespaces/inkscape"
   width="454"
   height="224.84497"
   id="svg2"
   version="1.1"
   inkscape:version="0.91 r13725"
   sodipodi:docname="cigarette.svg">
  <defs
     id="defs4" />
  <sodipodi:namedview
     id="base"
     pagecolor="#ffffff"
     bordercolor="#666666"
     borderopacity="1.0"
     inkscape:pageopacity="0.0"
     inkscape:pageshadow="2"
     inkscape:zoom="0.7"
     inkscape:cx="68.25902"
     inkscape:cy="71.86779"
     inkscape:document-units="px"
     inkscape:current-layer="layer1"
     showgrid="false"
     showguides="true"
     inkscape:guide-bbox="true"
     fit-margin-top="0"
     fit-margin-left="0"
     fit-margin-right="0"
     fit-margin-bottom="0"
     inkscape:window-width="1323"
     inkscape:window-height="744"
     inkscape:window-x="43"
     inkscape:window-y="24"
     inkscape:window-maximized="1" />
  <metadata
     id="metadata7">
    <rdf:RDF>
      <cc:Work
         rdf:about="">
        <dc:format>image/svg+xml</dc:format>
        <dc:type
           rdf:resource="http://purl.org/dc/dcmitype/StillImage" />
        <dc:title />
      </cc:Work>
    </rdf:RDF>
  </metadata>
  <g
     inkscape:label="Layer 1"
     inkscape:groupmode="layer"
     id="layer1"
     transform="translate(-27.479329,-523.6746)">
    <path
       style="fill:#ffffff;fill-opacity:1"
       d="m 422.47933,718.01957 0,-30.5 8,0 8,0 0,30.5 0,30.5 -8,0 -8,0 0,-30.5 z m 23,0 0,-30.5 7,0 7,0 0,30.5 0,30.5 -7,0 -7,0 0,-30.5 z m 20,0 0,-30.5 8,0 8,0 0,30.5 0,30.5 -8,0 -8,0 0,-30.5 z m -438.000001,0.5 0,-29 193.500001,0 193.5,0 0,29 0,29 -193.5,0 -193.500001,0 0,-29 z M 437.49107,675.03139 c -13.55575,-13.64683 -26.45845,-18.25936 -58.60705,-20.95119 -10.39758,-0.8706 -20.70469,-1.84076 -22.90469,-2.15592 -17.58069,-2.51849 -34.06821,-13.43209 -44.91123,-29.72814 -6.80161,-10.2222 -10.55951,-19.52155 -15.52167,-38.41018 -4.70719,-17.9181 -6.78971,-23.54942 -10.93919,-29.58048 -3.86506,-5.61767 -7.39125,-8.35041 -16.91217,-13.10665 -6.95077,-3.47231 -18.23954,-12.88879 -16.97157,-14.15677 0.33062,-0.33061 5.33453,0.17565 11.1198,1.12503 11.81793,1.93937 19.81658,1.3294 33.63603,-2.56505 5.75191,-1.62094 9.51858,-2.02751 16.16051,-1.74432 7.57698,0.32305 9.57878,0.82957 16,4.04852 4.58961,2.30077 10.70254,6.71586 16.31554,11.78397 10.82702,9.77599 21.15173,15.11807 39.52395,20.44998 28.32063,8.21909 38.82028,12.65132 49.5,20.89549 11.62504,8.9739 21.38338,23.83608 25.00543,38.08389 5.27699,20.75768 3.98733,57.74165 -2.17051,62.24437 -0.94445,0.6906 -3.77993,1.25563 -6.30108,1.25563 -4.37488,0 -4.92307,-0.34145 -12.0221,-7.48818 z m -2.0384,-22.26182 c -7.72002,-13.79612 -18.59993,-26.05186 -27.97334,-31.51073 -5.67949,-3.30761 -16.88035,-6.31931 -28.55923,-7.67903 -18.93046,-2.204 -23.69957,-5.35276 -39.49288,-26.07484 -10.5216,-13.80517 -24.45472,-28.86199 -30.6565,-33.12893 -2.43757,-1.67709 -4.63301,-2.84818 -4.87877,-2.60242 -0.24576,0.24575 1.03931,2.91482 2.85571,5.93125 3.67612,6.10479 3.90198,6.74969 10.2666,29.3147 5.35592,18.98876 9.48261,28.14195 15.87859,35.21943 8.84394,9.78627 20.84109,13.67206 45.6927,14.79954 7.36658,0.33421 16.99378,1.2786 21.39378,2.09863 9.69098,1.80612 23.68254,8.3765 31.5,14.79228 3.025,2.48261 5.88046,4.531 6.34546,4.55198 0.465,0.021 -0.60245,-2.54936 -2.37212,-5.71186 z m 6.49253,-27.40861 c -2.6114,-10.1207 -8.06344,-19.51407 -15.92509,-27.43749 -10.94528,-11.03128 -18.16931,-13.96767 -52.69835,-21.4206 -9.93521,-2.14447 -21.30335,-7.01823 -31.32825,-13.43108 -3.05416,-1.95372 -5.78482,-3.55222 -6.06814,-3.55222 -1.67,0 21.41053,24.36343 25.7786,27.21147 6.80943,4.43983 8.3488,5.00596 26.45624,9.72969 16.29648,4.2513 24.68737,7.88558 33.16509,14.36456 6.71424,5.13126 15.05304,15.71041 18.7889,23.83684 l 2.86513,6.23236 0.30106,-4.59607 c 0.16558,-2.52784 -0.43525,-7.4497 -1.33519,-10.93746 z"
       id="path2996"
       inkscape:connector-curvature="0" />
  </g>
</svg>
