<?xml version="1.0" encoding="UTF-8" standalone="no"?>
<!-- Created with Inkscape (http://www.inkscape.org/) -->

<svg
   xmlns:dc="http://purl.org/dc/elements/1.1/"
   xmlns:cc="http://creativecommons.org/ns#"
   xmlns:rdf="http://www.w3.org/1999/02/22-rdf-syntax-ns#"
   xmlns:svg="http://www.w3.org/2000/svg"
   xmlns="http://www.w3.org/2000/svg"
   xmlns:sodipodi="http://sodipodi.sourceforge.net/DTD/sodipodi-0.dtd"
   xmlns:inkscape="http://www.inkscape.org/namespaces/inkscape"
   width="8.4663315mm"
   height="8.4666662mm"
   viewBox="0 0 29.998812 29.999998"
   id="svg2"
   version="1.1"
   inkscape:version="0.91 r13725"
   sodipodi:docname="logo.svg">
  <defs
     id="defs4" />
  <sodipodi:namedview
     id="base"
     pagecolor="#ffffff"
     bordercolor="#666666"
     borderopacity="1.0"
     inkscape:pageopacity="0.0"
     inkscape:pageshadow="2"
     inkscape:zoom="11.2"
     inkscape:cx="26.50203"
     inkscape:cy="15.361508"
     inkscape:document-units="px"
     inkscape:current-layer="layer1"
     showgrid="false"
     fit-margin-top="0"
     fit-margin-left="0"
     fit-margin-right="0"
     fit-margin-bottom="0"
     inkscape:window-width="1323"
     inkscape:window-height="744"
     inkscape:window-x="43"
     inkscape:window-y="24"
     inkscape:window-maximized="1" />
  <metadata
     id="metadata7">
    <rdf:RDF>
      <cc:Work
         rdf:about="">
        <dc:format>image/svg+xml</dc:format>
        <dc:type
           rdf:resource="http://purl.org/dc/dcmitype/StillImage" />
        <dc:title></dc:title>
      </cc:Work>
    </rdf:RDF>
  </metadata>
  <g
     inkscape:label="Layer 1"
     inkscape:groupmode="layer"
     id="layer1"
     transform="translate(943.57084,-380.21934)">
    <g
       id="g4183"
       transform="translate(-943.57084,380.21934)"
       style="fill:#ffffff;fill-opacity:1">
      <g
         id="g4137"
         style="fill:#ffffff;fill-opacity:1">
        <g
           id="g4139"
           style="fill:#ffffff;fill-opacity:1">
          <path
             id="path4141"
             d="M 28.68,1.319 C 27.802,0.443 26.585,0 25.064,0 22.32,0 18.704,1.507 15.001,4.07 11.299,1.507 7.682,0 4.94,0 3.417,0 2.199,0.444 1.324,1.321 0.445,2.198 0.001,3.416 0,4.939 -0.001,7.68 1.507,11.296 4.069,15 1.506,18.703 0,22.319 0.001,25.061 0.002,26.583 0.447,27.801 1.323,28.676 2.201,29.555 3.42,30 4.944,30 7.684,30 11.299,28.493 15.001,25.93 18.702,28.493 22.318,30 25.062,30 26.583,30 27.8,29.557 28.679,28.68 31.21,26.143 29.991,20.794 25.961,14.999 29.99,9.205 31.21,3.857 28.68,1.319 Z m -3.616,0.904 c 0.912,0 1.601,0.227 2.045,0.669 C 28.56,4.345 27.668,8.37 24.546,13.101 23.481,11.753 22.285,10.397 20.943,9.057 19.627,7.74 18.263,6.538 16.898,5.468 19.979,3.43 22.912,2.223 25.064,2.223 Z M 2.222,4.94 C 2.222,4.026 2.449,3.339 2.896,2.893 3.34,2.449 4.027,2.222 4.94,2.222 c 2.149,0 5.081,1.207 8.162,3.245 -1.365,1.07 -2.729,2.271 -4.045,3.589 -1.318,1.316 -2.52,2.68 -3.591,4.045 C 3.429,10.02 2.221,7.089 2.222,4.94 Z M 4.943,27.777 C 4.03,27.777 3.34,27.548 2.894,27.101 2.449,26.659 2.223,25.968 2.222,25.058 2.221,22.91 3.428,19.978 5.465,16.896 c 1.071,1.365 2.272,2.729 3.591,4.046 1.317,1.317 2.681,2.52 4.046,3.59 -3.078,2.038 -6.01,3.245 -8.159,3.245 z m 7.151,-6.769 c -0.779,0 -1.411,-0.675 -1.411,-1.502 l 0,-9.012 c 0,-0.827 0.632,-1.501 1.411,-1.501 l 5.811,0 c 0.779,0 1.412,0.674 1.412,1.501 l 0,9.012 c 0,0.827 -0.633,1.502 -1.412,1.502 l -5.811,0 z m 15.011,6.097 c -0.443,0.445 -1.133,0.672 -2.045,0.672 -2.149,0 -5.082,-1.207 -8.162,-3.245 1.365,-1.07 2.728,-2.271 4.043,-3.589 1.342,-1.34 2.537,-2.696 3.604,-4.045 3.121,4.732 4.014,8.756 2.56,10.207 z"
             inkscape:connector-curvature="0"
             style="fill:#ffffff;fill-opacity:1" />
          <circle
             id="circle4143"
             r="0.493"
             cy="20.068001"
             cx="14.999"
             style="fill:#ffffff;fill-opacity:1" />
          <path
             id="path4145"
             d="m 18.566,18.378 0,-7.884 c 0,-0.414 -0.295,-0.749 -0.662,-0.749 l -5.811,0 c -0.366,0 -0.662,0.335 -0.662,0.749 l 0,7.884 c 0,0.414 0.296,0.752 0.662,0.752 l 5.811,0 c 0.367,0 0.662,-0.338 0.662,-0.752 z"
             inkscape:connector-curvature="0"
             style="fill:#ffffff;fill-opacity:1" />
        </g>
      </g>
      <g
         id="g4147"
         style="fill:#ffffff;fill-opacity:1" />
      <g
         id="g4149"
         style="fill:#ffffff;fill-opacity:1" />
      <g
         id="g4151"
         style="fill:#ffffff;fill-opacity:1" />
      <g
         id="g4153"
         style="fill:#ffffff;fill-opacity:1" />
      <g
         id="g4155"
         style="fill:#ffffff;fill-opacity:1" />
      <g
         id="g4157"
         style="fill:#ffffff;fill-opacity:1" />
      <g
         id="g4159"
         style="fill:#ffffff;fill-opacity:1" />
      <g
         id="g4161"
         style="fill:#ffffff;fill-opacity:1" />
      <g
         id="g4163"
         style="fill:#ffffff;fill-opacity:1" />
      <g
         id="g4165"
         style="fill:#ffffff;fill-opacity:1" />
      <g
         id="g4167"
         style="fill:#ffffff;fill-opacity:1" />
      <g
         id="g4169"
         style="fill:#ffffff;fill-opacity:1" />
      <g
         id="g4171"
         style="fill:#ffffff;fill-opacity:1" />
      <g
         id="g4173"
         style="fill:#ffffff;fill-opacity:1" />
      <g
         id="g4175"
         style="fill:#ffffff;fill-opacity:1" />
    </g>
  </g>
</svg>
